<?xml version="1.0" standalone="no"?>
<!DOCTYPE svg PUBLIC "-//W3C//DTD SVG 20010904//EN"
 "http://www.w3.org/TR/2001/REC-SVG-20010904/DTD/svg10.dtd">
<svg version="1.0" xmlns="http://www.w3.org/2000/svg"
 width="77.000000pt" height="77.000000pt" viewBox="0 0 77.000000 77.000000"
 preserveAspectRatio="xMidYMid meet">
<metadata>
Created by potrace 1.11, written by Peter Selinger 2001-2013
</metadata>
<g transform="translate(0.000000,77.000000) scale(0.100000,-0.100000)"
fill="#000000" stroke="none">
<path d="M360 714 c18 -29 28 -57 25 -67 -5 -12 -18 -4 -62 39 -30 31 -57 53
-60 51 -2 -3 11 -21 30 -40 38 -37 70 -91 60 -100 -3 -3 -26 16 -52 42 -26 26
-58 54 -71 60 -20 10 -18 6 8 -16 34 -31 92 -110 92 -128 0 -5 -21 11 -47 36
-27 25 -64 56 -83 69 -29 20 -26 14 21 -36 73 -77 100 -126 38 -68 -45 42
-102 84 -114 84 -3 0 20 -24 52 -54 32 -30 66 -68 76 -85 16 -27 12 -25 -31
16 -27 26 -64 57 -83 67 -27 15 -21 7 29 -41 60 -58 90 -103 34 -51 -33 31
-103 78 -116 78 -5 0 8 -11 28 -25 39 -27 66 -52 106 -100 16 -19 7 -14 -26
15 -28 25 -67 53 -85 64 l-34 19 35 -31 c19 -17 38 -31 42 -32 3 0 21 -19 39
-41 l33 -42 -48 37 c-27 20 -63 44 -80 52 l-31 14 25 -17 c14 -10 43 -36 65
-57 22 -22 31 -32 20 -24 -11 8 -38 25 -60 37 l-40 23 30 -24 c17 -12 46 -38
65 -56 l35 -34 -35 20 c-19 11 -51 29 -70 41 -51 30 -60 26 -13 -6 22 -16 55
-41 74 -57 l34 -28 -40 22 c-22 13 -44 27 -49 32 -6 4 -15 8 -20 8 -6 0 3 -9
19 -20 55 -36 76 -54 87 -73 8 -17 5 -16 -23 6 -34 25 -99 61 -99 54 0 -2 22
-18 48 -35 26 -17 56 -41 67 -53 17 -18 11 -17 -40 11 -58 31 -56 26 12 -22
44 -31 41 -42 -5 -17 -28 15 -31 16 -12 2 14 -10 46 -37 71 -60 56 -52 108
-64 171 -38 24 9 63 21 88 26 43 8 42 8 -16 5 -33 -2 -75 -11 -92 -20 -26 -14
-32 -14 -32 -3 0 17 94 49 170 58 l55 6 -65 1 c-40 1 -86 -6 -118 -17 -29 -10
-51 -14 -49 -8 4 13 93 46 140 51 21 2 42 8 45 11 9 9 -107 -4 -128 -14 -27
-14 -70 -22 -70 -12 0 11 132 54 171 55 34 1 40 16 7 16 -24 0 -139 -24 -173
-35 -16 -6 -17 -5 -5 4 26 19 112 42 180 48 36 3 67 7 69 9 12 11 -143 2 -193
-11 -33 -9 -61 -14 -63 -12 -8 8 91 40 165 53 l77 14 -81 -5 c-44 -2 -93 -9
-109 -15 -15 -6 -30 -8 -32 -6 -12 11 136 46 201 47 70 2 70 2 21 9 -65 9
-134 3 -186 -15 -48 -17 -57 -18 -43 -6 26 24 124 45 214 45 56 0 83 3 65 7
-47 10 -177 10 -214 -1 -19 -5 -37 -8 -39 -5 -9 9 115 38 175 40 36 2 67 6 71
10 12 12 -172 3 -218 -11 -24 -7 -46 -11 -48 -9 -2 2 29 14 69 26 51 16 100
23 159 23 53 0 74 3 55 7 -53 12 -159 9 -215 -5 -67 -18 -76 -14 -18 8 57 22
132 33 204 30 54 -2 56 -1 19 6 -53 12 -141 12 -190 0 -51 -12 -59 -4 -9 9 62
17 85 19 163 20 41 1 72 3 69 6 -13 14 -166 12 -217 -1 -30 -8 -56 -12 -59 -9
-13 13 98 48 176 55 48 4 74 8 57 10 -60 6 -136 0 -175 -14 -22 -7 -37 -10
-34 -5 9 15 66 42 119 56 l50 13 -47 -5 c-26 -2 -60 -11 -77 -19 -24 -13 -29
-13 -25 -2 3 7 23 22 45 31 43 20 47 31 5 15 l-27 -10 22 32 22 33 -37 -36
-38 -36 -39 41 -40 41 31 -51z"/>
<path d="M628 453 c7 -3 16 -2 19 1 4 3 -2 6 -13 5 -11 0 -14 -3 -6 -6z"/>
<path d="M628 373 c7 -3 16 -2 19 1 4 3 -2 6 -13 5 -11 0 -14 -3 -6 -6z"/>
<path d="M598 343 c6 -2 18 -2 25 0 6 3 1 5 -13 5 -14 0 -19 -2 -12 -5z"/>
<path d="M598 303 c6 -2 18 -2 25 0 6 3 1 5 -13 5 -14 0 -19 -2 -12 -5z"/>
<path d="M550 280 c8 -5 20 -10 25 -10 6 0 3 5 -5 10 -8 5 -19 10 -25 10 -5 0
-3 -5 5 -10z"/>
<path d="M548 243 c7 -3 16 -2 19 1 4 3 -2 6 -13 5 -11 0 -14 -3 -6 -6z"/>
<path d="M35 161 c-7 -13 88 -102 143 -133 43 -26 55 -28 157 -28 106 0 113 2
199 40 49 22 105 43 124 46 23 5 30 9 21 14 -30 17 -90 19 -180 5 -111 -16
-189 -13 -243 9 -48 20 -49 20 -36 -4 14 -26 55 -46 109 -54 55 -7 65 -16 20
-17 -100 -3 -161 18 -256 91 -29 21 -55 35 -58 31z"/>
</g>
</svg>
